<?xml version="1.0" encoding="utf-8"?><svg viewBox="0 0 80 82" xmlns="http://www.w3.org/2000/svg" xmlns:xlink="http://www.w3.org/1999/xlink"><style>:root>svg{display:none}:root>svg:target{display:block}</style><svg fill="none" viewBox="0 0 80 82" id="build--1" xmlns="http://www.w3.org/2000/svg"><path d="M21.966 32.745c0-3.76 2.884-6.808 6.44-6.808H1.357V36.83h21.898l.013-.022a6.994 6.994 0 01-1.3-4.062zM50.305 24.576h28.339v13.615H50.305z" fill="#C7A17A"/><path fill-rule="evenodd" clip-rule="evenodd" d="M56.343 9.139C52.908 3.699 46.875.069 40 .069S27.09 3.7 23.657 9.14H0v71.256h80V9.14H56.343zM40 2.66c9.249 0 16.774 7.556 16.774 16.842v2.591H77.42v20.73H47.283a11.655 11.655 0 004.33-9.07v-11.66H28.387v2.592c-4.27 0-7.742 3.486-7.742 7.773 0 4.287 3.472 7.774 7.742 7.774h1.964c.654.98 1.454 1.851 2.366 2.59H2.581V22.095h20.645v-2.59C23.226 10.215 30.75 2.66 40 2.66zM25.806 45.415v5.182h28.388v-5.182H25.806zm5.162-11.66v-9.07h18.064v9.07c0 5-4.051 9.069-9.032 9.069-4.98 0-9.032-4.068-9.032-9.07zm-2.58 3.886h.676a11.62 11.62 0 01-.677-3.886v-6.478c-2.846 0-5.161 2.324-5.161 5.182 0 2.858 2.315 5.182 5.161 5.182zM2.58 16.913h12.903v-2.591H2.58V11.73h19.691a19.272 19.272 0 00-.907 2.59h-3.3v2.592h2.772c-.113.85-.192 1.71-.192 2.591H2.581v-2.59zm0 28.503v32.39h20.645v-32.39H2.58zm23.226 7.774H38.71v24.616H25.806V53.189zm15.483 0v24.616h12.904V53.189H41.29zm36.13 24.616H56.773v-32.39H77.42v32.39zM59.162 16.912c.113.85.192 1.71.192 2.591h18.064v-2.59H64.516V14.32H77.42V11.73H57.728c.364.834.66 1.7.907 2.59h3.3v2.592h-2.772z" fill="#232C38"/><path d="M41.29 19.503h2.581v-2.285c0-1.293.716-2.455 1.867-3.033a5.953 5.953 0 003.294-5.35V6.546h-2.58v2.286a3.375 3.375 0 01-1.867 3.033 5.953 5.953 0 00-3.295 5.35v2.287zM36.129 17.218c0-1.293.716-2.455 1.867-3.033a5.953 5.953 0 003.294-5.35V6.546h-2.58v2.286a3.375 3.375 0 01-1.867 3.033 5.953 5.953 0 00-3.295 5.35v2.287h2.581v-2.285zM33.548 60.962h2.581v5.182h-2.581zM43.871 60.962h2.581v5.182h-2.581z" fill="#232C38"/></svg><svg fill="none" viewBox="0 0 79 80" id="build--2" xmlns="http://www.w3.org/2000/svg"><path d="M69.294 46.733a8.941 8.941 0 01-8.072 5.07v-5.07H17.778v5.07a8.94 8.94 0 01-8.072-5.07H5v27.886h69V46.733h-4.706z" fill="#C7A17A"/><path fill-rule="evenodd" clip-rule="evenodd" d="M71.212 41.446h3.815c2.103 0 3.815 1.705 3.815 3.8v30.397c0 2.094-1.712 3.8-3.815 3.8H3.816c-2.104 0-3.815-1.706-3.815-3.8V45.247c0-2.095 1.711-3.8 3.815-3.8H7.63v-1.266c0-4.122 2.58-7.823 6.359-9.36v-4.078c-3.778-1.537-6.359-5.237-6.359-9.36v-1.266c-4.207 0-7.63-3.408-7.63-7.6C0 4.328 3.424.92 7.63.92h63.582c4.208 0 7.63 3.408 7.63 7.599 0 4.19-3.422 7.599-7.63 7.599v1.266c0 4.123-2.58 7.825-6.358 9.36v4.078c3.778 1.536 6.358 5.238 6.358 9.359v1.266zm-8.902 8.76c3.604-.605 6.359-3.734 6.359-7.493V40.18c0-2.73-1.514-5.212-3.815-6.552v1.486c0 .507-.105.99-.286 1.432a5.053 5.053 0 011.557 3.634v2.533c0 2.357-1.624 4.343-3.815 4.906v2.588zm-41.963-34.09v1.267c0 .295-.064.582-.163.854a3.79 3.79 0 00-2.38-.854 3.79 3.79 0 00-2.381.854 2.494 2.494 0 01-.163-.854v-1.266h5.087zm-3.815 5.067v13.931a1.271 1.271 0 002.543 0V21.183a1.271 1.271 0 00-2.543 0zm5.042-.442c.828-.924 1.316-2.109 1.316-3.358v-1.266h2.543v1.266c0 2.73-1.513 5.212-3.815 6.552v-2.752c0-.107-.014-.211-.028-.315l-.016-.127zM15.996 38.44c-.447.462-.736 1.069-.736 1.74v1.266h5.087V40.18c0-.67-.289-1.278-.737-1.74-.54.292-1.15.473-1.806.473a3.778 3.778 0 01-1.807-.473zm5.336-1.894c.182-.442.286-.924.286-1.432v-1.486c2.302 1.342 3.815 3.823 3.815 6.552v1.266H22.89V40.18a5.05 5.05 0 00-1.558-3.634zm.286-9.803v4.078c3.778 1.536 6.359 5.236 6.359 9.36v1.267h22.889V40.18c0-4.122 2.58-7.824 6.358-9.36v-4.078c-3.778-1.537-6.358-5.239-6.358-9.36v-1.266h-22.89v1.266c0 4.123-2.58 7.823-6.358 9.36zm38.15 8.371V21.183a1.271 1.271 0 012.542 0v13.931a1.271 1.271 0 01-2.543 0zm3.651-16.877c.1-.272.163-.559.163-.854v-1.266h-5.086v1.266c0 .295.063.582.162.854a3.79 3.79 0 012.38-.854 3.79 3.79 0 012.381.854zm-6.15 2.504l-.015.11c-.015.11-.03.218-.03.332v2.752c-2.302-1.341-3.815-3.822-3.815-6.552v-1.266h2.543v1.266c0 1.25.489 2.434 1.317 3.358zm-.045 12.887c-2.302 1.34-3.815 3.821-3.815 6.552v1.266h2.543V40.18c0-1.4.59-2.698 1.558-3.634a3.765 3.765 0 01-.286-1.432v-1.486zm1.272 6.552c0-.671.288-1.278.736-1.74.54.292 1.15.473 1.807.473s1.266-.18 1.807-.473c.448.462.736 1.07.736 1.74v1.266h-5.086V40.18zm6.358-16.245c2.301-1.34 3.815-3.821 3.815-6.552V14.85c0-3.759-2.755-6.888-6.358-7.493v2.587c2.19.565 3.814 2.55 3.814 4.906v2.533c0 1.25-.488 2.434-1.316 3.359l.016.124v.001c.014.104.029.208.029.316v2.752zM2.544 8.518c0-2.794 2.281-5.066 5.086-5.066h63.582c2.805 0 5.086 2.272 5.086 5.066s-2.28 5.066-5.086 5.066h-.088c-.63-4.99-4.907-8.866-10.085-8.866h-1.272v7.6h1.272c.937 0 1.748.512 2.19 1.266H15.614a2.537 2.537 0 012.19-1.267h1.271V4.718h-1.271c-5.179 0-9.456 3.876-10.086 8.866H7.63c-2.805 0-5.086-2.272-5.086-5.066zm7.63 7.599v1.266c0 2.73 1.513 5.212 3.815 6.552v-2.752c0-.113.014-.221.03-.33l.014-.111c-.828-.925-1.316-2.11-1.316-3.359V14.85c0-2.357 1.624-4.342 3.815-4.906V7.357c-3.604.605-6.358 3.734-6.358 7.493v1.267zm0 24.063c0-2.73 1.513-5.212 3.815-6.552v1.486c0 .508.104.99.286 1.432a5.053 5.053 0 00-1.558 3.634v2.533c0 2.356 1.624 4.341 3.815 4.906v2.588c-3.604-.606-6.358-3.735-6.358-7.494V40.18zm64.853 36.728c.7 0 1.271-.569 1.271-1.267V45.246c0-.698-.57-1.267-1.271-1.267h-3.903c-.63 4.99-4.907 8.866-10.085 8.866h-1.272v-7.6h1.272c.937 0 1.748-.512 2.19-1.266H15.614a2.537 2.537 0 002.19 1.267h1.271v7.599h-1.271c-5.179 0-9.456-3.876-10.086-8.866H3.816c-.701 0-1.272.569-1.272 1.267V75.64c0 .698.57 1.267 1.272 1.267h71.21z" fill="#232C38"/><path d="M41.48 51.002v.004h.004l-.004-.004z" fill="#232C38"/><path fill-rule="evenodd" clip-rule="evenodd" d="M41.691 51.225c.047.051.094.103.142.153 5.154-2.994 11.266-2.704 14.926.841 1.941 1.883 3.01 4.508 3.01 7.389 0 3.668-1.693 7.414-4.646 10.276-3.044 2.952-6.929 4.476-10.556 4.476-2.86 0-5.562-.949-7.567-2.892l.005-.006c-.48.057-.964.095-1.456.095-3.627 0-7.51-1.524-10.556-4.476-2.952-2.863-4.646-6.61-4.646-10.277 0-2.882 1.07-5.506 3.01-7.388 4.546-4.407 12.675-3.695 18.123 1.586.074.072.143.148.211.223zm-1.985 1.592c-2.561-2.484-5.804-3.777-8.776-3.777-1.75 0-3.391.468-4.762 1.383l15.977 15.49c.938-1.29 1.437-2.865 1.437-4.635 0-2.989-1.413-6.072-3.876-8.461zm-12.94 12.45c-2.464-2.388-3.876-5.472-3.876-8.46 0-1.77.497-3.346 1.437-4.634L40.31 67.67c-3.694 2.475-9.474 1.545-13.544-2.401zm13.319 5.388c3.702 2.245 9.294 1.26 13.262-2.586 2.464-2.389 3.877-5.472 3.876-8.461 0-1.77-.499-3.346-1.437-4.634l-1.932 1.873-1.775-1.815 1.863-1.806c-2.793-1.86-6.829-1.801-10.443.148 1.596 2.284 2.504 4.877 2.6 7.455l4.463-4.327 1.775 1.816-6.854 6.646a9.733 9.733 0 01-2.368 3.703 9.877 9.877 0 01-3.03 1.988z" fill="#232C38"/><path fill="#232C38" d="M24.162 5.985h25.433v2.533H24.162zM52.138 5.985h2.543v2.533h-2.543z"/></svg><svg fill="none" viewBox="0 0 80 82" id="build--3" xmlns="http://www.w3.org/2000/svg"><path fill="#C7A17A" d="M2 49.158h41.22v26.218H2z"/><path d="M43.22 57.023H78v-28.84H39.356v7.866h3.864v20.974z" fill="#C7A17A"/><path fill-rule="evenodd" clip-rule="evenodd" d="M80 9.139V3.956C80 1.813 78.263.07 76.129.07H40c-2.134 0-3.871 1.744-3.871 3.887V9.14c0 1.144.505 2.163 1.29 2.876v21.74H3.871C1.737 33.755 0 35.499 0 37.64v36.277c0 3.572 2.894 6.478 6.452 6.478h30.967c.442 0 .874-.045 1.29-.13v.13h37.42c2.134 0 3.871-1.744 3.871-3.887v-5.182a3.874 3.874 0 00-1.29-2.876V12.015A3.874 3.874 0 0080 9.139zm-2.58-5.183V9.14c0 .713-.58 1.295-1.291 1.295h-5.161V2.661h5.161c.711 0 1.29.581 1.29 1.295zM47.741 2.661v7.773h5.161V2.661h-5.161zm7.742 0h5.161v7.773h-5.161V2.661zm12.903 0h-5.161v7.773h5.161V2.661zM38.71 3.956c0-.714.579-1.295 1.29-1.295h5.161v7.773H40c-.711 0-1.29-.582-1.29-1.295V3.956zM2.58 73.918c0 2.143 1.737 3.887 3.872 3.887h30.967c2.135 0 3.871-1.744 3.871-3.887V44.119h-2.58v-2.59h2.58V37.64c0-.713-.579-1.295-1.29-1.295H3.871c-.711 0-1.29.582-1.29 1.296v3.886h33.548v2.591H2.581v29.799zm74.84 2.591c0 .715-.58 1.296-1.291 1.296H42.547c.82-1.086 1.324-2.423 1.324-3.887v-3.887h32.258c.711 0 1.29.58 1.29 1.296v5.182zM43.87 67.44h32.258V13.025H40v20.73c2.134 0 3.871 1.744 3.871 3.886V67.44z" fill="#151D28"/><path fill-rule="evenodd" clip-rule="evenodd" d="M55.52 51.876c2.98 0 6.267-1.372 8.876-3.99 4.488-4.506 5.298-11.023 1.807-14.529-3.492-3.506-9.982-2.692-14.469 1.814-4.486 4.506-5.297 11.023-1.806 14.527 1.46 1.468 3.446 2.178 5.592 2.178zm7.052-5.822c-3.043 3.053-7.136 4.061-9.777 2.597L65.16 36.236c1.456 2.653.454 6.761-2.588 9.818zm-1.979-12.312c-2.292 0-4.917 1.133-7.036 3.26-3.042 3.057-4.044 7.165-2.588 9.817l12.35-12.4c-.802-.443-1.727-.677-2.726-.677zM15.604 54.605c-4.488 4.506-5.298 11.023-1.807 14.528 1.461 1.468 3.447 2.178 5.593 2.178 2.98 0 6.267-1.372 8.876-3.99 4.488-4.506 5.298-11.023 1.806-14.529-3.49-3.508-9.98-2.694-14.468 1.813zm1.824 1.832c2.12-2.127 4.745-3.26 7.037-3.26.998 0 1.923.234 2.725.678l-12.35 12.4c-1.456-2.654-.454-6.762 2.588-9.818zm-.762 11.648c2.641 1.464 6.734.456 9.777-2.597 3.042-3.057 4.043-7.165 2.588-9.818L16.666 68.085z" fill="#151D28"/></svg><svg fill="none" viewBox="0 0 75 82" id="build--4" xmlns="http://www.w3.org/2000/svg"><path d="M9 18.143v.757c0 5.786 3.003 11.175 7.972 14.304h25.056C46.997 30.075 50 24.686 50 18.9v-.757H9z" fill="#C7A17A"/><path fill-rule="evenodd" clip-rule="evenodd" d="M67.257.07C71.527.07 75 3.555 75 7.842a7.776 7.776 0 01-5.16 7.32v65.232H5.321C2.475 80.395.16 78.07.16 75.212c0-2.858 2.314-5.182 5.16-5.182h10.467a9.067 9.067 0 01-2.41-4.143l-3.644-1.218a6.47 6.47 0 01-4.412-6.146v-8.077a6.467 6.467 0 014.41-6.145l3.332-1.114v-.363c0-.572.13-1.11.352-1.599a4.53 4.53 0 01-2.933-4.231c0-2.062 1.385-3.786 3.262-4.335-3.706-3.522-5.842-8.424-5.842-13.67v-3.373C3.633 15.617.16 12.13.16 7.844.16 3.556 3.633.069 7.903.069h59.354zM38.87 3.955c0-.714-.579-1.295-1.29-1.295H24.677a1.295 1.295 0 000 2.59H37.58c.711 0 1.29-.581 1.29-1.295zM2.741 7.843c0-2.858 2.315-5.182 5.162-5.182h13.14c-.144.406-.237.84-.237 1.295 0 2.143 1.737 3.887 3.87 3.887H37.58c2.134 0 3.871-1.744 3.871-3.887 0-.456-.093-.889-.237-1.295h13.14c2.847 0 5.162 2.324 5.162 5.182 0 2.858-2.315 5.182-5.162 5.182H7.903c-2.847 0-5.162-2.324-5.162-5.182zm51.613 25.912h5.162v-5.183h-5.162v5.183zm0 10.364h5.162v5.183h-5.162v-5.183zm0-2.59h5.162v-5.183h-5.162v5.182zm-2.58-15.548V51.893h7.742v18.138H43.888a9.058 9.058 0 002.724-6.478v-20.73c0-.57-.13-1.11-.352-1.598a4.53 4.53 0 002.933-4.231c0-2.06-1.385-3.785-3.262-4.335 3.706-3.523 5.843-8.426 5.843-13.67v-3.373h7.742v10.365h-7.742zm-2.581-6.992v-3.373h-38.71v3.373c0 1.058.132 2.091.327 3.105h6.125c3.557 0 6.452 2.906 6.452 6.478v3.887h18.648a16.194 16.194 0 007.158-13.47zm-37.675 5.697h5.417c2.134 0 3.87 1.744 3.87 3.886v3.887h-3.164a16.165 16.165 0 01-6.123-7.773zM44.677 35.05H14.999a1.942 1.942 0 00-1.935 1.944c0 1.071.868 1.943 1.935 1.943h29.678a1.942 1.942 0 001.935-1.943 1.942 1.942 0 00-1.935-1.944zM7.903 58.523v-8.077a3.883 3.883 0 012.646-3.689l2.515-.84v17.136l-2.515-.84a3.886 3.886 0 01-2.646-3.69zm7.742-15.7v20.73c0 3.572 2.894 6.478 6.451 6.478H37.58c3.557 0 6.452-2.906 6.452-6.478v-20.73c0-.714-.58-1.295-1.29-1.295H16.934c-.711 0-1.29.58-1.29 1.296zm51.612 34.982H5.322a2.588 2.588 0 01-2.58-2.591 2.589 2.589 0 012.58-2.592h56.774V15.616h5.161v62.189zm-7.148-64.78h7.148c2.847 0 5.162-2.324 5.162-5.182 0-2.858-2.315-5.182-5.162-5.182H60.11a7.751 7.751 0 010 10.364z" fill="#151D28"/><path fill="#333" d="M38.87 44.119h2.581v2.591H38.87zM18.225 44.119h18.064v2.591H18.225z"/></svg><svg fill="none" viewBox="0 0 24 17" id="choose--arrow" xmlns="http://www.w3.org/2000/svg"><path d="M16.161.256a.843.843 0 00-1.21 0 .864.864 0 000 1.206l6.134 6.178H.847A.846.846 0 000 8.494c0 .475.375.865.847.865h20.238l-6.133 6.167a.88.88 0 000 1.218c.338.341.883.341 1.21 0l7.584-7.64a.843.843 0 000-1.207L16.161.256z" fill="#F9FBFF"/></svg><svg fill="none" viewBox="0 0 24 17" id="combo--arrow" xmlns="http://www.w3.org/2000/svg"><path d="M16.161.256a.843.843 0 00-1.21 0 .864.864 0 000 1.206l6.134 6.178H.847A.846.846 0 000 8.494c0 .475.375.865.847.865h20.238l-6.133 6.167a.88.88 0 000 1.218c.338.341.883.341 1.21 0l7.584-7.64a.843.843 0 000-1.207L16.161.256z" fill="#F9FBFF"/></svg><svg fill="none" viewBox="0 0 40 40" id="giftset--coffee" xmlns="http://www.w3.org/2000/svg"><path d="M15.995 24.984c-2.25-3.829-2.255-7.809-2.026-9.661-5.27 2.507-8.422 7.89-6.3 12.716 2.498.249 6.002-.51 8.326-3.055z" fill="#415167"/><path d="M16.574 25.91c-2.052 2.177-5.577 3.407-8.268 3.244 2.457 3.548 8.991 5.107 14.877 1.685-2.52-.612-4.897-2.4-6.609-4.929z" fill="#415167"/><path d="M22.731 17.96c-3.52-3.899-3.812-7.62-3.328-10.062-3.637 2.085-5.413 7.43-3.988 12.878 1.59 6.228 7.242 10.94 12.543 8.568.165-1.75-.053-5.676-5.227-11.384z" fill="#415167"/><path d="M32.525 16.19C30.91 9.982 25.512 5.693 20.6 7.35c-.718 2.334-.617 6.087 2.935 9.91 1.611 1.896 5.594 6.386 5.52 11.47 3.264-2.295 4.79-7.364 3.471-12.542z" fill="#415167"/></svg><svg fill="none" viewBox="0 0 40 40" id="giftset--mountain" xmlns="http://www.w3.org/2000/svg"><path d="M19.02 7.394c-.161-.277-.508-.412-.774-.44a.877.877 0 00-.76.467l-3.111 5.824 1.632 1.871 1.508-2.433c.321-.517 1.169-.517 1.49 0l1.509 2.433 1.771-2.079-3.266-5.643z" fill="#415167"/><path d="M23.75 15.596l-.517-.894-2.081 2.528c-.172.238-.42.393-.742.363a.876.876 0 01-.712-.416l-1.453-2.346-1.453 2.346a.876.876 0 01-.712.416h-.033a.876.876 0 01-.709-.363l-1.894-2.269-8.34 15.525a.895.895 0 00.02.875.877.877 0 00.755.433h9.9a2.676 2.676 0 01.17-2.196l7.801-14.002zM26.95 16.303c-.311-.558-1.225-.558-1.538 0l-1.838 3.284 2.608 2.862 2.607-2.863-1.838-3.283z" fill="#415167"/><path d="M34.887 30.472l-5.226-9.265-2.833 3.176a.878.878 0 01-1.351 0l-2.833-3.175-5.167 9.265a.891.891 0 00.007.882.877.877 0 00.758.439h15.879c.312 0 .6-.168.759-.44a.891.891 0 00.007-.882z" fill="#415167"/></svg><svg fill="none" viewBox="0 0 18 18" id="header--cart" xmlns="http://www.w3.org/2000/svg"><path d="M1.318 1.664h13.41c.04 0 .077.015.114.027l.33-1.101a.82.82 0 01.783-.59h1.636c.226 0 .409.186.409.416v.832c0 .23-.183.416-.41.416h-1.03l-2.555 8.54.954 1.133c.377.448.547 1.064.374 1.627-.222.719-.847 1.179-1.567 1.179H2.046a.413.413 0 01-.41-.416v-.832c0-.23.184-.416.41-.416h11.72l-1.296-1.538c-.033-.04-.057-.083-.082-.126H4.461A1.635 1.635 0 012.98 9.86L.125 3.691A1.37 1.37 0 010 3.121v-.118c0-.74.59-1.34 1.318-1.34z" fill="#F9FBFF"/><path d="M13.179 18a1.607 1.607 0 110-3.214 1.607 1.607 0 010 3.214zM3.536 18a1.607 1.607 0 110-3.214 1.607 1.607 0 010 3.214z" fill="#fff"/></svg></svg>